<svg xmlns="http://www.w3.org/2000/svg" width="1024" height="1024" preserveAspectRatio="none" style="display:block" viewBox="0 0 2048 2048"><path fill="#65c6ea" d="M1553.86 1213.73c47.83-10.16 260.35-25.01 285.89-56.3 2.47-3.03 3.46-7.24 2.77-11.08-4.77-26.49-97.45-51.17-122.16-57.37-12.13-3.04-44.34-7.83-53.12-15.06-2.49-2.06-3.63-4.01-3.85-7.3 7.59-26.84 92.65-4.97 112.82-.53 69.45 15.15 137.9 34.55 204.97 58.08 10.93 3.8 21.7 7.72 32.41 12.02 16.27 6.37 23.12 9.98 21.11 29.14-1.99 18.98-6.17 37.71-8.65 56.68-.81 6.22-1.69 12.2-3.33 18.36-4.21 15.8-21.36 7.84-32.38 6.87-12.69-1.53-25.16-3.12-37.85-4.32-87.45-7.94-175.46-7.16-262.76 2.32-176.95 20.02-347 68.86-520.25 107.6-18.98 4.25-38.01 7.71-57.03 11.69a3098 3098 0 0 1-218.458 39.54c-192.073 26.47-407.151 30.57-594.023-24.3-77.573-23.34-150.929-57.33-208.373-115.65-43.042-43.7-59.181-82.93-69.078-142.82-43.28-261.871 78.523-533.904 266.171-713.234A1078.5 1078.5 0 0 1 455.68 279.791c18.742-11.708 38.45-24.078 57.812-34.539 236.98-128.04 548.648-168.586 807.718-89.866-60.8-6.826-129.04-6.52-190.66-5.971-27.55.245-58.27.598-85.45 2.52a1201.3 1201.3 0 0 0-441.364 116.316c-186.894 91.096-366.479 259.335-433.462 459.571-36.61 109.438-40.55 225.472 10.801 330.698 89.213-89.763 281.953-99.258 402.811-104.576 19.122-.841 51.188.8 67.565 12.23 5.563 4.347 7.424 14.943 8.022 21.851-80.065 1.53-226.032 7.609-289.57 66.775-11.357 10.57-17.642 27.02-17.64 42.4.002 18.89 15.2 44.74 29.601 56.24 56.066 44.77 158.04 76.8 225.851 94.73 24.057 5.89 47.667 12.2 71.958 17.29 152.632 32 317.525 45.86 472.627 25.79-16.03-1.66-41.1-1.74-57.86-2.39-35.02-1.32-70.01-3.14-104.966-5.45a1543.4 1543.4 0 0 1-346.551-63.08c-46.004-14.03-90.28-29.19-132.87-51.82-21.042-11.18-43.369-23.25-59.101-41.54-9.262-10.76-14.735-23.05-13.27-37.54 1.51-14.94 9.923-26.2 21.421-35.18 15.072-11.77 33.007-19.76 51.066-25.73 36.618-12.1 152.539-32.308 187.861-27.73 13.32 1.72 22.145 6.66 30.149 17.62 3.132 4.29 5.643 8.75 4.86 14.18-2.23 3.63-6.089 4.76-10.034 5.79-10.544 2.73-22.004 3.55-32.795 5.28-25.742 4.12-62.345 12.13-83.337 27.37-7.609 5.52-15.005 13.62-16.243 23.3-1.192 9.33 3.642 18.18 9.286 25.22 57.592 71.82 259.174 110.2 349.645 120.22-19.955-6.79-40.976-9.59-61.715-16.44-64.319-21.79-160.117-45.31-209.648-92.35-57.304-54.41 51.16-87.31 91.089-81.83 71.47 9.81-16.284 45.45 19.753 78.06 36.254 32.81 105.397 49.97 152.715 57.89a902 902 0 0 0 105.775 10.69c63.02 2.72 174.47-3.69 226.56-43.42 15.68-11.95 9.06-30.34 17.19-34.76 18.54-10.06 65.98-8.51 87.82-6.33 9.18.92 22.4 5.85 26.73 13.01 2.38 3.93 3.77 8.98 2.5 13.29-18.71 63.43-153.52 84.96-209.57 93.36-16.25 2.44-98.82 8.57-101.65 10.59.47.15.93.35 1.41.44 7.13 1.4 17.03.29 24.55.34 40.71.31 80.74-3.73 121.14-8.22 47.31-5.25 95.47-11.08 141.35-24.16 24.88-7.09 51.25-16.13 71.13-33.25 37.22-32.06-3.71-46.41-1.41-66.5.41-3.58 2.52-6.23 5.25-8.39 25.54-20.2 105.79-17.69 138.07-13.53 35.96 4.65 70.3 14.55 103.86 28.1 10.37 4.19 24.74 8.94 31.5 18.39 2.07 2.9 3.45 6.92 2.39 10.47-1.16 3.88-4.61 6.89-8.16 8.52-16.08 7.35-34.66 10.44-51.68 15.05-37.33 10.09-90.95 24.4-125.12 41.48l-1.3.66-16.93 7.51z"/><path fill="#9bd8ed" d="M181.075 1058.52c89.213-89.763 281.953-99.258 402.811-104.576 19.122-.841 51.188.8 67.565 12.23 5.563 4.347 7.424 14.943 8.022 21.851-80.065 1.53-226.032 7.609-289.57 66.775-11.357 10.57-17.642 27.02-17.64 42.4.002 18.89 15.2 44.74 29.601 56.24 56.066 44.77 158.04 76.8 225.851 94.73-.829 8.78-.114 22.09.111 31.23-44.619-.48-97.38-8.71-140.483-21.22-96.957-28.15-196.616-74.57-259.773-156.3-9.806-12.69-18.834-29.14-26.495-43.36"/><path fill="#1271a9" d="M217.667 1493.96c88.765 68.18 194.622 105.37 302.808 129.37a1124.7 1124.7 0 0 0 218.324 25.93c179.424 4.77 352.661-28.16 523.141-76.27 211.52-59.7 416.42-111.89 637.48-86.89 23.6 2.66 12.1 17.81 4.34 29.32C1830.8 1623.7 1732.52 1711 1622.3 1780c-253 157.92-554.6 198.43-843.085 130.98a1059.6 1059.6 0 0 1-527.749-303.23c-32.908-35.35-65.187-74.97-90.661-116.03 12.545-2.47 30.207-1.33 42.896.33 2.457.32 12.122 1.87 13.966 1.91"/><path fill="#368fcb" d="M73.985 1330.24c18.528 14.49 37.178 28.44 57.221 40.78 213.737 131.64 493.922 127.57 734.678 98.17 133.259-16.27 265.466-43.9 396.466-72.79 219.29-48.35 440.5-101.9 666.76-81.99 12.09 1.06 55.6 2.41 64.21 10.3 1.74 1.6 2.46 2.63 2.4 5.03-.41 16.4-45.61 112.44-58.28 123.43-6.4 5.54-19.27 4.08-27.23 3.22-28.57-3.07-56.97-8.55-85.51-12.12a717.4 717.4 0 0 0-113.02-4.93c-159.83 5.78-322.28 50.81-476.9 89.85-303.67 76.68-614.435 105.42-916.727 4.07-21.49-7.37-42.748-15.4-63.743-24.08-6.938-2.91-31.138-13.9-36.643-15.22-1.844-.04-11.509-1.59-13.966-1.91-12.689-1.66-30.351-2.8-42.896-.33-25.931-34.77-70.26-119.4-86.82-161.48m920.764-876.545c2.146 2.163 17.291 34.603 19.771 39.404a1471 1471 0 0 0 29.76 55.029l109.25 186.708c16.53 28.703 31.92 55.304 47.48 84.599 78.92 148.545 6.85 329.605-173.25 341.755-93.361 4.53-175.317-41.33-212.333-128.41a253.3 253.3 0 0 1-19.086-130.8c5.328-45.406 25.907-97.659 44.353-139.263 29.027-65.475 63.817-128.67 96.857-192.228 20.484-39.405 40.626-75.487 57.198-116.794"/><path fill="#65c6ea" d="M903.538 798.752c.044 5.301-.456 11.294-.82 16.642-4.498 66.255 8.75 143.135 63.241 187.076 21.397 17.26 51.041 32.42 78.421 37.1 38.86 6.63 92.88 1.34 126.13-21.61-9.97 28.48-20.66 43.84-43.15 64.04-44.52 36.7-114.73 44.28-166.618 19.29-41.404-19.54-66.958-53.02-82.44-95.37-23.283-63.703-3.804-147.185 25.236-207.168m116.632-192.08c2.36 2.146 8.12 21.133 10.56 26.539 4.9 10.809 10.03 22.862 16.17 33.072 39.29 65.371 90.4 124.701 114.43 198.199 9.46 28.959 11.29 49.177-2.76 77.068-32.42 37.968-60.28-36.023-72.51-58.192-22.4-40.6-43.85-85.549-53.7-131.01-10.38-47.877-9.57-97.12-12.19-145.676"/><path fill="#519945" d="M1270.51 900.522c-3.75-11.451-5.97-27.145-9.21-39.185-3.88-14.282-8.52-29.594-14.35-43.237-40.57-94.875-100.39-180.266-150-270.419-7.79-14.155-8.45-24.414-3.01-39.754 39.54-111.594 123.04-206.009 213.8-279.674 8.91-7.175 38.78-31.009 47.73-35.725l1.88.647c-2.06 4.388-9.62 121.45-9.78 135.021-.19 16.997-12.58 135.122-10.92 140.656-1.99 8.096-2.72 24.213-3.48 32.838-10.08 114.291-31.24 227.609-53.18 340.128-3.73 19.104-8.82 39.152-9.48 58.704"/><path fill="#8ec444" d="M1357.35 193.175c18.52 29.081 37.55 58.75 53.72 89.053 66.12 123.849 111.06 263.15 79.15 404.054-15.68 69.285-50.48 123.67-89.55 181.86a1973 1973 0 0 1-65.22 91.81c-20.67 27.287-42.62 54.388-62.07 82.548 11.75-35.44 16.96-73.925 26-109.993 29.18-116.419 42.36-234.819 40.78-354.828-.43-36.78-.1-71.692-3.51-108.827-1.66-5.534 10.73-123.659 10.92-140.656.16-13.571 7.72-130.633 9.78-135.021"/><path fill="#519945" d="M1963.14 695.958c1.35 4.474-8.77 21.815-11.52 26.863-70.27 128.868-162.42 264.545-311.63 306.349-75.4 21.12-150.91 30.21-228.69 36.21-22.57 1.82-48.67 5.08-70.82 5.73 85.16-61.83 175.85-119.818 264.32-176.934l78.79-51.827c12.03-7.779 32.91-19.611 43.59-27.857 5.97.036 33.71-17.018 40.47-20.657a3270 3270 0 0 1 163.31-82.148c10.6-4.966 21.9-10.144 32.18-15.729"/><path fill="#8ec444" d="M1352.29 1012.08c4.26-15.371 20.43-44.347 29-59.483 48.29-85.356 102.55-166.553 187.43-218.743 117.12-72.012 264.83-69.739 394.42-37.896-10.28 5.585-21.58 10.763-32.18 15.729a3270 3270 0 0 0-163.31 82.148c-6.76 3.639-34.5 20.693-40.47 20.657-132.69 38.213-261.15 121.836-374.89 197.588"/><path fill="#020103" fill-opacity=".016" d="M1315.08 1212.96c1.48.73 2.07.97 3.68 1.58l1.54.56-.11 1.02-1.76 1.2-1.02-1.18-.33.24.68 1.17c2.3.85 4.36 1.68 6.63 2.62-3.38 1.14-11.36-.17-13.81-2.71l.38-1.21 2.21 1.38z"/><path fill="#9bd8ed" fill-opacity=".031" d="m1533.16 1218.44 16.93-7.51 3.77 2.8z"/></svg>